<mxfile host="app.diagrams.net" agent="Mozilla/5.0 (Windows NT 10.0; Win64; x64) AppleWebKit/537.36 (KHTML, like Gecko) Chrome/140.0.0.0 Safari/537.36 Edg/140.0.0.0" version="28.2.5">
  <diagram name="Página-1" id="PfNCsjIEstSjflY2YoCy">
    <mxGraphModel dx="1418" dy="786" grid="1" gridSize="10" guides="1" tooltips="1" connect="1" arrows="1" fold="1" page="1" pageScale="1" pageWidth="827" pageHeight="1169" math="0" shadow="0">
      <root>
        <mxCell id="0" />
        <mxCell id="1" parent="0" />
        <mxCell id="3cfWkyzvag1nJlsP3m4W-1" value="I" style="ellipse;whiteSpace=wrap;html=1;" vertex="1" parent="1">
          <mxGeometry x="354" y="20" width="120" height="80" as="geometry" />
        </mxCell>
        <mxCell id="3cfWkyzvag1nJlsP3m4W-2" value="F" style="ellipse;whiteSpace=wrap;html=1;" vertex="1" parent="1">
          <mxGeometry x="354" y="660" width="120" height="80" as="geometry" />
        </mxCell>
        <mxCell id="3cfWkyzvag1nJlsP3m4W-47" value="sanduicheP = 1, CafeP= 0.80, RefriP = 1.5, BoloP = 0,80" style="shape=parallelogram;perimeter=parallelogramPerimeter;whiteSpace=wrap;html=1;fixedSize=1;" vertex="1" parent="1">
          <mxGeometry x="209.5" y="150" width="409" height="60" as="geometry" />
        </mxCell>
        <mxCell id="3cfWkyzvag1nJlsP3m4W-70" value="QtnS= 10&lt;div&gt;QtnC = 5&lt;/div&gt;&lt;div&gt;QtnR = 12&lt;/div&gt;&lt;div&gt;QtnB = 30&lt;/div&gt;" style="shape=parallelogram;perimeter=parallelogramPerimeter;whiteSpace=wrap;html=1;fixedSize=1;" vertex="1" parent="1">
          <mxGeometry x="354" y="250" width="120" height="60" as="geometry" />
        </mxCell>
        <mxCell id="3cfWkyzvag1nJlsP3m4W-73" value="" style="endArrow=classic;html=1;rounded=0;" edge="1" parent="1" source="3cfWkyzvag1nJlsP3m4W-1" target="3cfWkyzvag1nJlsP3m4W-47">
          <mxGeometry width="50" height="50" relative="1" as="geometry">
            <mxPoint x="180" y="140" as="sourcePoint" />
            <mxPoint x="230" y="90" as="targetPoint" />
          </mxGeometry>
        </mxCell>
        <mxCell id="3cfWkyzvag1nJlsP3m4W-75" value="Lucro = (QtnS*PreçoS-sanduicheP*QtnS)+(QtnC*PreçoC-CafeP*Qtnc)+(QtnR*PreçoR-QtnR*RefriP&lt;span style=&quot;background-color: transparent; color: light-dark(rgb(0, 0, 0), rgb(255, 255, 255));&quot;&gt;)+(QtnB*PreçoB-BoloP*QtnB)&lt;/span&gt;" style="shape=parallelogram;perimeter=parallelogramPerimeter;whiteSpace=wrap;html=1;fixedSize=1;" vertex="1" parent="1">
          <mxGeometry x="16" y="480" width="795" height="60" as="geometry" />
        </mxCell>
        <mxCell id="3cfWkyzvag1nJlsP3m4W-76" value="PreçoS = 2, PreçoC = 1, PreçoR =2,PreçoB=1.5" style="shape=parallelogram;perimeter=parallelogramPerimeter;whiteSpace=wrap;html=1;fixedSize=1;" vertex="1" parent="1">
          <mxGeometry x="179.5" y="380" width="469" height="60" as="geometry" />
        </mxCell>
        <mxCell id="3cfWkyzvag1nJlsP3m4W-77" value="Escrever &quot;o lucro do dia foi &quot; Lucro &quot;euros&quot;" style="shape=parallelogram;perimeter=parallelogramPerimeter;whiteSpace=wrap;html=1;fixedSize=1;" vertex="1" parent="1">
          <mxGeometry x="286" y="585" width="256" height="60" as="geometry" />
        </mxCell>
        <mxCell id="3cfWkyzvag1nJlsP3m4W-78" value="" style="endArrow=classic;html=1;rounded=0;" edge="1" parent="1" source="3cfWkyzvag1nJlsP3m4W-47" target="3cfWkyzvag1nJlsP3m4W-70">
          <mxGeometry width="50" height="50" relative="1" as="geometry">
            <mxPoint x="530" y="310" as="sourcePoint" />
            <mxPoint x="580" y="260" as="targetPoint" />
          </mxGeometry>
        </mxCell>
        <mxCell id="3cfWkyzvag1nJlsP3m4W-79" value="" style="endArrow=classic;html=1;rounded=0;" edge="1" parent="1" source="3cfWkyzvag1nJlsP3m4W-70" target="3cfWkyzvag1nJlsP3m4W-76">
          <mxGeometry width="50" height="50" relative="1" as="geometry">
            <mxPoint x="460" y="270" as="sourcePoint" />
            <mxPoint x="460" y="310" as="targetPoint" />
          </mxGeometry>
        </mxCell>
        <mxCell id="3cfWkyzvag1nJlsP3m4W-80" value="" style="endArrow=classic;html=1;rounded=0;" edge="1" parent="1" source="3cfWkyzvag1nJlsP3m4W-76" target="3cfWkyzvag1nJlsP3m4W-75">
          <mxGeometry width="50" height="50" relative="1" as="geometry">
            <mxPoint x="440" y="420" as="sourcePoint" />
            <mxPoint x="440" y="460" as="targetPoint" />
          </mxGeometry>
        </mxCell>
        <mxCell id="3cfWkyzvag1nJlsP3m4W-81" value="" style="endArrow=classic;html=1;rounded=0;" edge="1" parent="1" source="3cfWkyzvag1nJlsP3m4W-75" target="3cfWkyzvag1nJlsP3m4W-77">
          <mxGeometry width="50" height="50" relative="1" as="geometry">
            <mxPoint x="450" y="540" as="sourcePoint" />
            <mxPoint x="450" y="580" as="targetPoint" />
          </mxGeometry>
        </mxCell>
        <mxCell id="3cfWkyzvag1nJlsP3m4W-82" value="" style="endArrow=classic;html=1;rounded=0;" edge="1" parent="1" source="3cfWkyzvag1nJlsP3m4W-77" target="3cfWkyzvag1nJlsP3m4W-2">
          <mxGeometry width="50" height="50" relative="1" as="geometry">
            <mxPoint x="430" y="630" as="sourcePoint" />
            <mxPoint x="430" y="670" as="targetPoint" />
          </mxGeometry>
        </mxCell>
      </root>
    </mxGraphModel>
  </diagram>
</mxfile>
